<svg xmlns="http://www.w3.org/2000/svg" xmlns:xlink="http://www.w3.org/1999/xlink" width="500" zoomAndPan="magnify" viewBox="0 0 375 374.999991" height="500" preserveAspectRatio="xMidYMid meet" version="1.0"><defs><clipPath id="208d490488"><path d="M 91 60.386719 L 305 60.386719 L 305 114 L 91 114 Z M 91 60.386719 " clip-rule="nonzero"/></clipPath><clipPath id="15c39ec088"><path d="M 70 74 L 264 74 L 264 314.636719 L 70 314.636719 Z M 70 74 " clip-rule="nonzero"/></clipPath></defs><g clip-path="url(#208d490488)"><path fill="#00ffe0" d="M 282.75 60.554688 L 91.363281 60.554688 L 97.804688 62.394531 C 106.757812 64.929688 113.742188 72.511719 114.546875 81.804688 C 114.605469 82.460938 114.644531 83.136719 114.644531 83.832031 L 114.644531 113.175781 L 299.382812 113.175781 C 302.050781 113.175781 304.226562 111.015625 304.226562 108.351562 L 304.226562 82.03125 C 304.226562 70.167969 294.597656 60.554688 282.75 60.554688 " fill-opacity="1" fill-rule="nonzero"/></g><g clip-path="url(#15c39ec088)"><path fill="#00ffe0" d="M 212.898438 246.402344 L 199.402344 280.101562 C 199.0625 280.964844 198.21875 281.546875 197.28125 281.546875 L 145.109375 281.546875 C 144.058594 281.546875 143.121094 280.796875 142.894531 279.761719 L 139.890625 266.527344 L 139.292969 263.789062 L 134.710938 243.492188 L 133.265625 237.148438 L 121.496094 231.78125 C 121.324219 231.703125 121.175781 231.628906 121.042969 231.535156 C 120.238281 230.992188 119.75 230.128906 119.671875 229.207031 C 119.617188 228.683594 119.710938 228.136719 119.9375 227.632812 C 120.332031 226.765625 121.082031 226.167969 121.925781 225.921875 C 122.621094 225.734375 123.371094 225.773438 124.066406 226.089844 L 124.628906 226.335938 L 138.691406 232.738281 L 141.074219 243.269531 L 210.777344 243.269531 C 212.390625 243.269531 213.5 244.902344 212.898438 246.402344 Z M 188.757812 300.636719 C 184.609375 300.636719 181.230469 297.257812 181.230469 293.089844 C 181.230469 288.941406 184.609375 285.5625 188.757812 285.5625 C 192.925781 285.5625 196.304688 288.941406 196.304688 293.089844 C 196.304688 297.257812 192.925781 300.636719 188.757812 300.636719 Z M 154.554688 300.636719 C 150.40625 300.636719 147.027344 297.257812 147.027344 293.089844 C 147.027344 290.949219 147.925781 289.035156 149.351562 287.648438 C 149.933594 287.101562 150.609375 286.632812 151.34375 286.296875 C 152.320312 285.828125 153.40625 285.5625 154.554688 285.5625 C 158.722656 285.5625 162.101562 288.941406 162.101562 293.089844 C 162.101562 297.257812 158.722656 300.636719 154.554688 300.636719 Z M 114.753906 195.042969 L 195.722656 195.042969 L 195.722656 203.152344 L 114.753906 203.152344 C 114.753906 200.222656 114.753906 197.988281 114.753906 195.042969 Z M 114.753906 174.804688 L 195.722656 174.804688 L 195.722656 182.894531 L 114.753906 182.894531 C 114.753906 179.984375 114.753906 177.734375 114.753906 174.804688 Z M 114.753906 154.566406 L 195.722656 154.566406 C 195.722656 157.496094 195.722656 159.730469 195.722656 162.660156 L 114.753906 162.660156 C 114.753906 159.730469 114.753906 157.496094 114.753906 154.566406 Z M 100.207031 162.640625 L 92.132812 162.640625 L 92.132812 154.566406 L 100.207031 154.566406 Z M 100.207031 182.894531 L 92.132812 182.894531 L 92.132812 174.824219 L 100.207031 174.824219 Z M 100.207031 203.152344 L 92.132812 203.152344 L 92.132812 195.078125 L 100.207031 195.078125 Z M 258.234375 126.671875 L 101.144531 126.671875 L 101.144531 89.878906 C 101.144531 81.9375 95.34375 74.878906 87.441406 74.128906 C 78.394531 73.261719 70.769531 80.378906 70.769531 89.21875 L 70.769531 310.082031 C 70.769531 312.765625 72.949219 314.921875 75.613281 314.921875 L 258.234375 314.921875 C 260.898438 314.921875 263.058594 312.765625 263.058594 310.082031 L 263.058594 131.515625 C 263.058594 128.847656 260.898438 126.671875 258.234375 126.671875 " fill-opacity="1" fill-rule="nonzero"/></g><path fill="#00ffe0" d="M 154.554688 289.316406 C 152.46875 289.316406 150.761719 291.007812 150.761719 293.089844 C 150.761719 295.195312 152.46875 296.902344 154.554688 296.902344 C 156.65625 296.902344 158.34375 295.195312 158.34375 293.089844 C 158.34375 291.007812 156.65625 289.316406 154.554688 289.316406 " fill-opacity="1" fill-rule="nonzero"/><path fill="#00ffe0" d="M 188.757812 289.316406 C 186.671875 289.316406 184.964844 291.007812 184.964844 293.089844 C 184.964844 295.195312 186.671875 296.902344 188.757812 296.902344 C 190.859375 296.902344 192.550781 295.195312 192.550781 293.089844 C 192.550781 291.007812 190.859375 289.316406 188.757812 289.316406 " fill-opacity="1" fill-rule="nonzero"/><path fill="#00ffe0" d="M 148.285156 275.292969 L 170.886719 275.292969 L 170.886719 265.53125 L 146.085938 265.53125 L 148.285156 275.292969 " fill-opacity="1" fill-rule="nonzero"/><path fill="#00ffe0" d="M 142.484375 249.519531 L 144.679688 259.28125 L 170.886719 259.28125 L 170.886719 249.519531 L 142.484375 249.519531 " fill-opacity="1" fill-rule="nonzero"/><path fill="#00ffe0" d="M 177.136719 259.28125 L 200.996094 259.28125 L 204.902344 249.519531 L 177.136719 249.519531 L 177.136719 259.28125 " fill-opacity="1" fill-rule="nonzero"/><path fill="#00ffe0" d="M 177.136719 275.292969 L 194.59375 275.292969 L 198.5 265.53125 L 177.136719 265.53125 L 177.136719 275.292969 " fill-opacity="1" fill-rule="nonzero"/></svg>