<svg xmlns="http://www.w3.org/2000/svg" xmlns:xlink="http://www.w3.org/1999/xlink" width="500" zoomAndPan="magnify" viewBox="0 0 375 374.999991" height="500" preserveAspectRatio="xMidYMid meet" version="1.0"><defs><g/><clipPath id="2cdfc46fb5"><path d="M 64 169.039062 L 101 169.039062 L 101 206 L 64 206 Z M 64 169.039062 " clip-rule="nonzero"/></clipPath><clipPath id="7b878048d9"><path d="M 70 169.039062 L 102.179688 169.039062 L 102.179688 200 L 70 200 Z M 70 169.039062 " clip-rule="nonzero"/></clipPath></defs><g clip-path="url(#2cdfc46fb5)"><path fill="#00ffe0" d="M 93.757812 174.105469 C 93.09375 174.71875 92.417969 175.34375 91.667969 176.039062 C 91.414062 175.875 91.113281 175.695312 90.824219 175.496094 C 82.207031 169.582031 70.269531 174 67.757812 184.148438 C 65.664062 192.621094 71.113281 200.109375 78.34375 201.972656 C 85.851562 203.910156 93.140625 200.328125 96.132812 193.28125 C 97.355469 190.402344 97.546875 187.414062 96.84375 184.390625 C 96.605469 183.363281 96.632812 182.519531 97.34375 181.703125 C 97.734375 181.257812 98.019531 180.722656 98.4375 180.105469 C 98.652344 180.410156 98.84375 180.597656 98.933594 180.828125 C 100.996094 185.902344 100.921875 190.964844 98.339844 195.78125 C 94.699219 202.574219 88.835938 205.953125 81.175781 205.519531 C 69.742188 204.875 62.585938 194.375 64.574219 184.230469 C 66.175781 176.066406 73.855469 169.042969 83.890625 169.847656 C 87.164062 170.109375 90.167969 171.246094 92.847656 173.179688 C 93.078125 173.34375 93.300781 173.519531 93.511719 173.707031 C 93.59375 173.78125 93.636719 173.902344 93.757812 174.105469 Z M 93.757812 174.105469 " fill-opacity="1" fill-rule="nonzero"/></g><g clip-path="url(#7b878048d9)"><path fill="#00ffe0" d="M 81.988281 190.070312 C 82.914062 189.046875 83.703125 188.140625 84.527344 187.265625 C 89.183594 182.296875 93.84375 177.332031 98.523438 172.382812 C 99.242188 171.628906 100.0625 170.964844 100.875 170.300781 C 101.195312 170.039062 101.613281 169.898438 101.988281 169.703125 C 102.433594 170.320312 102.132812 170.753906 101.894531 171.148438 C 100.996094 172.628906 100.117188 174.121094 99.148438 175.558594 C 94.527344 182.402344 89.890625 189.238281 85.222656 196.054688 C 84.617188 196.941406 83.839844 197.734375 83.050781 198.472656 C 82.277344 199.195312 81.878906 199.160156 81.019531 198.554688 C 80.65625 198.300781 80.296875 198.027344 79.996094 197.703125 C 76.996094 194.496094 73.984375 191.300781 71.03125 188.050781 C 69.8125 186.710938 70.007812 185.898438 71.574219 184.996094 C 71.855469 184.835938 72.15625 184.71875 72.441406 184.566406 C 74.019531 183.734375 75.382812 183.851562 76.6875 185.214844 C 77.992188 186.582031 79.457031 187.800781 80.851562 189.078125 C 81.171875 189.371094 81.503906 189.652344 81.988281 190.070312 Z M 81.988281 190.070312 " fill-opacity="1" fill-rule="nonzero"/></g><g fill="#00ffe0" fill-opacity="1"><g transform="translate(4.486165, 204.115405)"><g><path d="M 11.046875 0.40625 C 9.648438 0.40625 8.125 0.328125 6.46875 0.171875 C 4.820312 0.0234375 3.363281 -0.179688 2.09375 -0.453125 L 2.09375 -6.046875 C 5.5 -5.785156 7.851562 -5.65625 9.15625 -5.65625 C 10.320312 -5.65625 11.203125 -5.71875 11.796875 -5.84375 C 12.398438 -5.976562 12.851562 -6.210938 13.15625 -6.546875 C 13.414062 -6.816406 13.585938 -7.191406 13.671875 -7.671875 C 13.753906 -8.160156 13.796875 -8.851562 13.796875 -9.75 C 13.796875 -10.988281 13.726562 -11.863281 13.59375 -12.375 C 13.46875 -12.894531 13.195312 -13.28125 12.78125 -13.53125 C 12.363281 -13.78125 11.640625 -14.003906 10.609375 -14.203125 L 5.90625 -15.0625 C 4.238281 -15.351562 3.085938 -16.265625 2.453125 -17.796875 C 1.816406 -19.335938 1.5 -21.554688 1.5 -24.453125 C 1.5 -27.285156 1.90625 -29.453125 2.71875 -30.953125 C 3.539062 -32.453125 4.664062 -33.46875 6.09375 -34 C 7.53125 -34.539062 9.347656 -34.8125 11.546875 -34.8125 C 13.085938 -34.8125 14.566406 -34.707031 15.984375 -34.5 C 17.398438 -34.300781 18.554688 -34.101562 19.453125 -33.90625 L 19.453125 -28.3125 C 17.648438 -28.613281 15.632812 -28.765625 13.40625 -28.765625 C 12.207031 -28.765625 11.28125 -28.710938 10.625 -28.609375 C 9.976562 -28.503906 9.503906 -28.320312 9.203125 -28.0625 C 8.835938 -27.789062 8.601562 -27.40625 8.5 -26.90625 C 8.40625 -26.40625 8.359375 -25.671875 8.359375 -24.703125 C 8.359375 -23.671875 8.414062 -22.921875 8.53125 -22.453125 C 8.644531 -21.984375 8.851562 -21.648438 9.15625 -21.453125 C 9.457031 -21.253906 9.972656 -21.085938 10.703125 -20.953125 L 15.109375 -20.15625 C 16.273438 -19.988281 17.265625 -19.628906 18.078125 -19.078125 C 18.898438 -18.523438 19.539062 -17.617188 20 -16.359375 C 20.46875 -15.023438 20.703125 -13.140625 20.703125 -10.703125 C 20.703125 -7.535156 20.316406 -5.148438 19.546875 -3.546875 C 18.785156 -1.953125 17.726562 -0.894531 16.375 -0.375 C 15.03125 0.144531 13.253906 0.40625 11.046875 0.40625 Z M 11.046875 0.40625 "/></g></g></g><g fill="#00ffe0" fill-opacity="1"><g transform="translate(34.846144, 204.115405)"><g><path d="M 16.5 0 L 16.5 -14.15625 L 9.453125 -14.15625 L 9.453125 0 L 2.59375 0 L 2.59375 -34.40625 L 9.453125 -34.40625 L 9.453125 -20.5 L 16.5 -20.5 L 16.5 -34.40625 L 23.359375 -34.40625 L 23.359375 0 Z M 16.5 0 "/></g></g></g><g fill="#00ffe0" fill-opacity="1"><g transform="translate(69.021589, 204.115405)"><g/></g></g><g fill="#00ffe0" fill-opacity="1"><g transform="translate(86.177972, 204.115405)"><g/></g></g><g fill="#00ffe0" fill-opacity="1"><g transform="translate(103.341103, 204.115405)"><g><path d="M 2.59375 -34.40625 L 13.953125 -34.40625 C 16.390625 -34.40625 18.234375 -33.972656 19.484375 -33.109375 C 20.734375 -32.242188 21.570312 -30.984375 22 -29.328125 C 22.4375 -27.679688 22.65625 -25.488281 22.65625 -22.75 C 22.65625 -20.125 22.453125 -17.984375 22.046875 -16.328125 C 21.648438 -14.679688 20.816406 -13.378906 19.546875 -12.421875 C 18.285156 -11.472656 16.40625 -11 13.90625 -11 L 9.5 -11 L 9.5 0 L 2.59375 0 Z M 12.203125 -17.0625 C 13.335938 -17.0625 14.140625 -17.191406 14.609375 -17.453125 C 15.078125 -17.722656 15.382812 -18.234375 15.53125 -18.984375 C 15.675781 -19.734375 15.75 -20.988281 15.75 -22.75 C 15.75 -24.519531 15.675781 -25.769531 15.53125 -26.5 C 15.382812 -27.238281 15.082031 -27.734375 14.625 -27.984375 C 14.175781 -28.234375 13.382812 -28.359375 12.25 -28.359375 L 9.5 -28.359375 L 9.5 -17.0625 Z M 12.203125 -17.0625 "/></g></g></g><g fill="#00ffe0" fill-opacity="1"><g transform="translate(135.301515, 204.115405)"><g><path d="M 2.59375 -34.40625 L 13.953125 -34.40625 C 16.390625 -34.40625 18.234375 -33.972656 19.484375 -33.109375 C 20.734375 -32.242188 21.570312 -30.984375 22 -29.328125 C 22.4375 -27.679688 22.65625 -25.488281 22.65625 -22.75 C 22.65625 -20.125 22.453125 -17.984375 22.046875 -16.328125 C 21.648438 -14.679688 20.816406 -13.378906 19.546875 -12.421875 C 18.285156 -11.472656 16.40625 -11 13.90625 -11 L 9.5 -11 L 9.5 0 L 2.59375 0 Z M 12.203125 -17.0625 C 13.335938 -17.0625 14.140625 -17.191406 14.609375 -17.453125 C 15.078125 -17.722656 15.382812 -18.234375 15.53125 -18.984375 C 15.675781 -19.734375 15.75 -20.988281 15.75 -22.75 C 15.75 -24.519531 15.675781 -25.769531 15.53125 -26.5 C 15.382812 -27.238281 15.082031 -27.734375 14.625 -27.984375 C 14.175781 -28.234375 13.382812 -28.359375 12.25 -28.359375 L 9.5 -28.359375 L 9.5 -17.0625 Z M 12.203125 -17.0625 "/></g></g></g><g fill="#00ffe0" fill-opacity="1"><g transform="translate(167.261928, 204.115405)"><g><path d="M 2.65625 0 L 2.65625 -34.40625 L 9.5 -34.40625 L 9.5 0 Z M 2.65625 0 "/></g></g></g><g fill="#00ffe0" fill-opacity="1"><g transform="translate(187.619175, 204.115405)"><g><path d="M 17.359375 0 L 9.359375 -18.859375 L 9.15625 -18.859375 L 9.15625 0 L 2.59375 0 L 2.59375 -34.40625 L 9.25 -34.40625 L 16.703125 -17 L 16.953125 -17 L 16.953125 -34.40625 L 23.5625 -34.40625 L 23.5625 0 Z M 17.359375 0 "/></g></g></g><g fill="#00ffe0" fill-opacity="1"><g transform="translate(221.980234, 204.115405)"><g><path d="M 12.546875 -14.109375 L 12.546875 -20 L 22 -20 L 22 -0.65625 C 20.832031 -0.351562 19.414062 -0.101562 17.75 0.09375 C 16.082031 0.300781 14.535156 0.40625 13.109375 0.40625 C 9.941406 0.40625 7.582031 -0.0664062 6.03125 -1.015625 C 4.476562 -1.972656 3.410156 -3.675781 2.828125 -6.125 C 2.242188 -8.570312 1.953125 -12.265625 1.953125 -17.203125 C 1.953125 -22.109375 2.257812 -25.785156 2.875 -28.234375 C 3.488281 -30.679688 4.613281 -32.390625 6.25 -33.359375 C 7.882812 -34.328125 10.335938 -34.8125 13.609375 -34.8125 C 14.941406 -34.8125 16.390625 -34.707031 17.953125 -34.5 C 19.523438 -34.300781 20.859375 -34.070312 21.953125 -33.8125 L 21.953125 -28.15625 C 19.085938 -28.5625 17.003906 -28.765625 15.703125 -28.765625 C 13.429688 -28.765625 11.867188 -28.578125 11.015625 -28.203125 C 10.171875 -27.835938 9.585938 -26.894531 9.265625 -25.375 C 8.953125 -23.863281 8.796875 -21.140625 8.796875 -17.203125 C 8.796875 -13.535156 8.894531 -10.925781 9.09375 -9.375 C 9.300781 -7.820312 9.695312 -6.78125 10.28125 -6.25 C 10.863281 -5.71875 11.851562 -5.453125 13.25 -5.453125 C 13.550781 -5.453125 14.351562 -5.503906 15.65625 -5.609375 L 15.65625 -14.109375 Z M 12.546875 -14.109375 "/></g></g></g><g fill="#00ffe0" fill-opacity="1"><g transform="translate(254.540815, 204.115405)"><g/></g></g><g fill="#00ffe0" fill-opacity="1"><g transform="translate(271.697203, 204.115405)"><g><path d="M 2.59375 0 L 2.59375 -34.40625 L 9.5 -34.40625 L 9.5 -6.25 L 18.203125 -6.25 L 18.203125 0 Z M 2.59375 0 "/></g></g></g><g fill="#00ffe0" fill-opacity="1"><g transform="translate(298.856316, 204.115405)"><g><path d="M 2.65625 0 L 2.65625 -34.40625 L 9.5 -34.40625 L 9.5 0 Z M 2.65625 0 "/></g></g></g><g fill="#00ffe0" fill-opacity="1"><g transform="translate(319.213572, 204.115405)"><g><path d="M 11.046875 0.40625 C 9.648438 0.40625 8.125 0.328125 6.46875 0.171875 C 4.820312 0.0234375 3.363281 -0.179688 2.09375 -0.453125 L 2.09375 -6.046875 C 5.5 -5.785156 7.851562 -5.65625 9.15625 -5.65625 C 10.320312 -5.65625 11.203125 -5.71875 11.796875 -5.84375 C 12.398438 -5.976562 12.851562 -6.210938 13.15625 -6.546875 C 13.414062 -6.816406 13.585938 -7.191406 13.671875 -7.671875 C 13.753906 -8.160156 13.796875 -8.851562 13.796875 -9.75 C 13.796875 -10.988281 13.726562 -11.863281 13.59375 -12.375 C 13.46875 -12.894531 13.195312 -13.28125 12.78125 -13.53125 C 12.363281 -13.78125 11.640625 -14.003906 10.609375 -14.203125 L 5.90625 -15.0625 C 4.238281 -15.351562 3.085938 -16.265625 2.453125 -17.796875 C 1.816406 -19.335938 1.5 -21.554688 1.5 -24.453125 C 1.5 -27.285156 1.90625 -29.453125 2.71875 -30.953125 C 3.539062 -32.453125 4.664062 -33.46875 6.09375 -34 C 7.53125 -34.539062 9.347656 -34.8125 11.546875 -34.8125 C 13.085938 -34.8125 14.566406 -34.707031 15.984375 -34.5 C 17.398438 -34.300781 18.554688 -34.101562 19.453125 -33.90625 L 19.453125 -28.3125 C 17.648438 -28.613281 15.632812 -28.765625 13.40625 -28.765625 C 12.207031 -28.765625 11.28125 -28.710938 10.625 -28.609375 C 9.976562 -28.503906 9.503906 -28.320312 9.203125 -28.0625 C 8.835938 -27.789062 8.601562 -27.40625 8.5 -26.90625 C 8.40625 -26.40625 8.359375 -25.671875 8.359375 -24.703125 C 8.359375 -23.671875 8.414062 -22.921875 8.53125 -22.453125 C 8.644531 -21.984375 8.851562 -21.648438 9.15625 -21.453125 C 9.457031 -21.253906 9.972656 -21.085938 10.703125 -20.953125 L 15.109375 -20.15625 C 16.273438 -19.988281 17.265625 -19.628906 18.078125 -19.078125 C 18.898438 -18.523438 19.539062 -17.617188 20 -16.359375 C 20.46875 -15.023438 20.703125 -13.140625 20.703125 -10.703125 C 20.703125 -7.535156 20.316406 -5.148438 19.546875 -3.546875 C 18.785156 -1.953125 17.726562 -0.894531 16.375 -0.375 C 15.03125 0.144531 13.253906 0.40625 11.046875 0.40625 Z M 11.046875 0.40625 "/></g></g></g><g fill="#00ffe0" fill-opacity="1"><g transform="translate(349.573554, 204.115405)"><g><path d="M 7 0 L 7 -28.15625 L 0.5 -28.15625 L 0.5 -34.40625 L 20.40625 -34.40625 L 20.40625 -28.15625 L 13.90625 -28.15625 L 13.90625 0 Z M 7 0 "/></g></g></g></svg>